PathFileType	4	(X/Y/Z)	Patient4_TMGait_0pt8_01_left_50.trc.trc
DataRate	CameraRate	NumFrames	NumMarkers	Units	OrigDataRate	OrigDataStartFrame	OrigNumFrames
87.500000000000	87.500000000000	4	33	mm	87.500000000000	1	       141
Frame#	Time	Sacral			L.Shoulder			Chest			R.Shoulder			Neck			R.ASIS			L.ASIS			R.Thigh.Superior			R.Thigh.Lateral			R.Thigh.Inferior			R.Patella			L.Thigh.Superior			L.Thigh.Lateral			L.Thigh.Inferior			L.Patella			L.Shank.Superior			L.Shank.Lateral			L.Shank.Inferior			R.Shank.Superior			R.Shank.Lateral			R.Shank.Inferior			R.Heel			R.Midfoot.Superior			R.Midfoot.Lateral			R.Toe			L.Heel			L.Midfoot.Lateral			L.Midfoot.Superior			L.Toe			L.Elbow			L.Wrist			R.Elbow			R.Wrist			
		X1	Y1	Z1	X2	Y2	Z2	X3	Y3	Z3	X4	Y4	Z4	X5	Y5	Z5	X6	Y6	Z6	X7	Y7	Z7	X8	Y8	Z8	X9	Y9	Z9	X10	Y10	Z10	X11	Y11	Z11	X12	Y12	Z12	X13	Y13	Z13	X14	Y14	Z14	X15	Y15	Z15	X16	Y16	Z16	X17	Y17	Z17	X18	Y18	Z18	X19	Y19	Z19	X20	Y20	Z20	X21	Y21	Z21	X22	Y22	Z22	X23	Y23	Z23	X24	Y24	Z24	X25	Y25	Z25	X26	Y26	Z26	X27	Y27	Z27	X28	Y28	Z28	X29	Y29	Z29	X30	Y30	Z30	X31	Y31	Z31	X32	Y32	Z32	X33	Y33	Z33	

1	55.720000000000	913.324086605283	1007.997045764650	552.414366151864	1064.337696950363	1438.260318591554	358.770192069377	1180.849721765495	1371.685320261439	512.524539731808	1109.580837674048	1440.908715334428	693.424950868243	1056.835916339192	1499.307394075705	515.622121425421	1145.386237010570	952.499420606526	661.178116845898	1118.919571243541	964.270152671140	387.327202643564	1173.478657800669	743.665927314352	636.391703032053	1082.522780607842	638.317215848157	692.618411930883	1157.799690329339	582.378058859402	615.704833286577	1152.493504889211	497.659567106834	619.723203863014	1209.614816010009	786.336273784274	408.727707759930	1161.414257640296	659.733089860925	328.512336829069	1272.832906755843	598.650448238497	380.189973604859	1286.812380355315	508.409829527460	370.238584897545	1218.191882692008	441.009776472521	365.790042451452	1073.128264327316	403.726578720300	323.382832759274	1060.022721245982	273.015004927978	374.972089499345	1129.070252778061	409.769545642443	623.363469029302	1058.265381174771	302.204718757969	679.893352025074	1107.282721167534	210.189769795349	615.513459296866	978.021316882552	44.424715477883	577.212037987814	1150.759530108901	98.933672871737	616.183087410732	1061.379790325475	37.674990804055	652.628497651965	1269.588393403299	43.757160999208	642.833549509245	870.521740781785	218.643994374987	422.549216170486	919.348636400961	169.217551362575	338.542662931930	1026.217414061334	167.959298682108	353.880748019799	1091.855213597755	49.847715164289	320.007409939176	1050.156560323281	1080.397382016991	257.372885760043	1220.349098990292	879.342041765045	256.929246091361	1096.961302963234	1087.523701710850	809.270299298571	1233.511181744890	864.578222504703	808.244779569306	
2	55.731428571429	911.517168146278	1008.414922518326	554.143872632418	1062.280547117403	1437.981084314972	359.822601311625	1179.875582441707	1371.325180033404	512.664154787587	1110.255876189694	1440.679512538127	694.159048561946	1056.269996113537	1499.212742321762	516.575493951008	1143.949432273799	951.954555732993	661.350526540010	1116.131579195559	964.438616855449	387.689111728465	1169.782062034107	742.988742221462	635.666934542478	1078.170910950715	638.211320694446	693.109542030263	1151.994262329942	581.588579567309	615.607244354294	1145.758082210637	496.968863311709	619.772645654900	1208.326423630933	789.463615867030	409.754755390665	1163.603829231512	662.436315443092	328.849459999594	1275.364869889312	603.315216199463	380.695431632455	1291.562373737772	514.060433828962	370.438117746824	1226.284375050564	444.573829663553	365.855377446497	1083.979933133158	399.699451525088	323.252314302948	1078.091410117654	268.731214965876	374.586769628602	1121.522561388392	409.297882981379	623.453932170985	1050.457435584497	302.178275769925	680.246169152849	1098.513458400091	209.936566472288	615.518984520625	968.362397676697	44.445925176321	577.270162704120	1141.033206561260	98.853734145821	616.299821859821	1051.696543357339	37.625908315910	652.622422744437	1259.913586459661	43.659651646265	642.872839294574	892.712204919545	203.760401704061	421.783216536115	944.149500803002	157.592012450684	337.792504499748	1050.433666134635	162.550066668917	353.232485009344	1122.571816839627	49.100550462607	319.204551845545	1043.894081583686	1079.869876877244	259.966975453310	1196.177607202605	868.033466840102	259.848942968738	1109.246981457008	1087.977680413689	811.001363017899	1259.485567904899	876.242611413162	806.831286220981	
3	55.742857142857	909.746867636416	1008.802083199526	555.822096594661	1060.288954908341	1437.679222519263	360.836494208504	1178.934187529442	1370.937663810214	512.786056111889	1110.932519066496	1440.429987350101	694.862739654694	1055.731570920975	1499.094802675121	517.495628502612	1142.533635448401	951.408659505491	661.522148334154	1113.387878969273	964.558931987404	388.033789868363	1166.139327524869	742.297642432643	634.986561620114	1073.872744598464	638.090078130528	693.578764900351	1146.286689781482	580.795451884072	615.520776402244	1139.129196044391	496.275694718534	619.815988416438	1207.002757806409	792.443734073418	410.763990492622	1165.636933866703	665.009805740933	329.193774351710	1277.685078153916	607.763186186238	381.268101902847	1296.040364477660	519.522297505882	370.684599475572	1234.107617671765	448.021572880009	365.932702530948	1094.671521033871	395.576937852313	323.098520192585	1096.038935562208	264.423274013482	374.144147347194	1114.102721007176	408.820802512933	623.533897128019	1042.761860153120	302.144073478636	680.593068449694	1089.861234947793	209.679021070774	615.522042519097	958.826956484589	44.463688563528	577.335915175208	1131.430775817350	98.773588512741	616.408278019488	1042.135925985195	37.578689320962	652.624225257542	1250.357431695653	43.562125574458	642.909382212850	914.936884247229	188.898193567708	420.950322812927	968.911735476138	146.024352084404	336.958936150508	1074.544995561472	157.163873437477	352.503746715362	1153.102360427901	48.434786629047	318.295110236905	1037.633600654078	1079.326722983187	262.518106047677	1172.221986191130	857.178713816351	262.710503254166	1121.314853514426	1088.464421017524	812.658555254093	1285.044058056722	888.067104318156	805.326293845564	
4	55.754285714286	908.044663828143	1009.128314095925	557.399549225561	1058.422961359886	1437.329752544357	361.770341809748	1178.056380092380	1370.488789421954	512.865603399008	1111.616905332063	1440.135907484760	695.498303712227	1055.250591631762	1498.922917168120	518.353011916708	1141.150814439377	950.849631042057	661.684476822800	1110.726139021126	964.575129130588	388.336720684680	1162.565016451138	741.565153271616	634.393569648308	1069.620705147443	637.939846137399	694.008163197145	1140.697302060184	579.986319032561	615.455739427198	1132.626416163276	495.572287499395	619.848870425719	1205.574074386860	795.095641083807	411.730004435027	1167.304199089950	667.292299265871	329.534064225391	1279.533025271108	611.743753945860	381.959047675088	1299.936691289680	524.600521284230	371.031180031296	1241.395169436053	451.247446966251	366.039538292301	1105.135222649182	391.247471605521	322.885295532390	1113.871426365625	260.109921426900	373.601995006618	1106.837528464140	408.333984826508	623.597884965953	1035.192337200655	302.099182736210	680.932051353428	1081.339946880060	209.414402389787	615.522524315564	949.430216407715	44.474985239831	577.417085792074	1121.969982365333	98.694318149460	616.503491188330	1032.713332960624	37.536320375791	652.643546644738	1240.933582659042	43.464694656669	642.941951979965	937.455193696313	174.079883573223	419.978690406655	993.848184396153	134.603461479060	335.976566463588	1098.642926887339	151.901356359188	351.641895652487	1183.482424755081	48.087255743037	317.248173859460	1031.280072011208	1078.788295570496	264.982766718455	1148.521825551296	847.225295427322	265.485301676305	1133.056595218612	1089.045276385840	814.146726472686	1309.877374856860	900.435099952266	803.581884762267	
